<?xml version="1.0" encoding="utf-8"?>
<!-- Generator: Adobe Illustrator 16.0.0, SVG Export Plug-In . SVG Version: 6.00 Build 0)  -->
<!DOCTYPE svg PUBLIC "-//W3C//DTD SVG 1.1//EN" "http://www.w3.org/Graphics/SVG/1.1/DTD/svg11.dtd">
<svg version="1.1" id="Layer_1" xmlns="http://www.w3.org/2000/svg" xmlns:xlink="http://www.w3.org/1999/xlink" x="0px" y="0px"
	 width="800px" height="800px" viewBox="0 0 800 800" enable-background="new 0 0 800 800" xml:space="preserve">
<path d="M3.965,592.656c0,49.892,40.588,90.479,90.479,90.479h20.108h552.079h40.211h41.894v-40.212h-41.894V542.39h41.894v-17.594
	h20.104H799v-40.212h-30.16V384.057H799v-40.212h-30.16h-2.513v-13.394v-20.107v-0.863l-49.647-92.992h52.161v-54.073L637.63,2.035
	H174.703L55.321,190.142c-20.417,16.612-33.76,41.625-33.76,69.935c0,49.581,40.114,89.89,89.593,90.383
	c-33.291,13.372-56.922,45.847-56.922,83.864c0,27.604,12.688,52.046,32.242,68.656C40.36,507.09,3.965,545.493,3.965,592.656z
	 M61.771,260.077c0-18.75,10.429-34.946,25.686-43.586h599.278v93.854H112.039C84.324,310.344,61.771,287.787,61.771,260.077z
	 M144.712,384.058h20.106h563.809v100.527H164.818h-20.106c-27.715,0-50.268-22.541-50.268-50.26
	C94.445,406.598,116.997,384.058,144.712,384.058z M94.445,542.39h20.108h552.079v100.533h-552.08H94.444
	c-27.713,0-50.265-22.541-50.265-50.267C44.179,564.93,66.732,542.39,94.445,542.39z"/>
</svg>
