<?xml version="1.0" encoding="utf-8"?>
<!-- Generator: Adobe Illustrator 15.0.0, SVG Export Plug-In . SVG Version: 6.00 Build 0)  -->
<!DOCTYPE svg PUBLIC "-//W3C//DTD SVG 1.1//EN" "http://www.w3.org/Graphics/SVG/1.1/DTD/svg11.dtd">
<svg version="1.1" id="Capa_1" xmlns="http://www.w3.org/2000/svg" xmlns:xlink="http://www.w3.org/1999/xlink" x="0px" y="0px"
	 width="800px" height="800px" viewBox="0 0 800 800" enable-background="new 0 0 800 800" xml:space="preserve">
<g>
	<path fill="#222221" d="M673.359,642.796H540.516H264.919c-11.49,0-20.806,9.315-20.806,20.806v12.804
		c0,11.49,9.315,20.81,20.806,20.81h275.598H673.36h68.821v-54.418L673.359,642.796L673.359,642.796z"/>
	<circle fill="#222221" cx="221.632" cy="200.071" r="115.19"/>
	<path fill="#222221" d="M502.68,482.593l-263.97-0.146l-6.25-0.019v-30.632l-0.217-25.64c0-61.245-49.651-110.898-110.899-110.898
		c-2.075,0-4.136,0.07-6.184,0.182l-0.156-0.182c-57.746,0.001-104.559,46.813-104.559,104.559v295.303H232.46V589.321l-2.937-0.231
		c-0.209-0.019-0.261,0.002-0.391,0.002c-15.021,0-29.417-6.324-39.562-17.4l-90.112-98.363c-2.873-3.135-2.66-8.003,0.476-10.874
		c3.133-2.873,8.003-2.659,10.874,0.476l90.111,98.362c7.322,7.993,17.648,12.881,28.521,13.039
		c0.723,0.01,10.594,0.152,10.594,0.152H502.68c25.375,0,45.946-20.571,45.946-45.947
		C548.626,503.162,528.055,482.593,502.68,482.593z"/>
	<path fill="#222221" d="M775.643,319.556c-10.745-3.681-22.441,2.049-26.123,12.794l-87.209,254.59H350.248
		c-11.356,0-20.567,9.207-20.567,20.565s9.211,20.566,20.567,20.566h326.508c6.994,0,13.168-3.503,16.879-8.841
		c1.282-1.694,2.329-3.607,3.058-5.729l91.751-267.831C792.115,334.931,786.392,323.235,775.643,319.556z"/>
</g>
</svg>
