<?xml version="1.0" encoding="UTF-8"?><svg xmlns="http://www.w3.org/2000/svg" xmlns:xlink="http://www.w3.org/1999/xlink" xmlns:xs="http://www.w3.org/2001/XMLSchema" xmlns:fn="http://www.w3.org/2005/xpath-functions" xmlns:svg="http://www.w3.org/2000/svg" version="1.2" baseProfile="full" width="2490" height="7020" viewBox="0 0 2490 7020" preserveAspectRatio="xMinYMin"><defs><style type="text/css">
	@font-face {
	font-family: "Lemon/Milk";
	  src: url("fonts/LemonMilk.otf");
	  font-weight: normal;
	  font-style: normal;
	}
	
	@font-face {
	  font-family: "Bitstream Vera Sans Mono";
	  src: url("fonts/VeraMono.ttf");
	  font-weight: normal;
	  font-style: normal;
	}

	svg {
	  font-size: 12px;
	}

	text {
	  font-family: "Bitstream Vera Sans Mono";
	  font-size: 3em;
	}
	
	#name-title {
	  font-family: "Lemon/Milk";
	  font-size: 7em;	       
	}
	
	.big-section-title {
	  font-family: "Lemon/Milk";
	  font-size: 4em;
	}
	
	.experience-field {
	  fill: #696969;
	  font-size:4em;
	}
	
	.experience-field .minor {
	  font-size: 0.75em;
	  fill: #B2B2B2;
	}
	
	.section-title {
	  font-family: "Lemon/Milk";
	  font-size: 3em;
	}
	
	</style></defs><text id="name-title" x="50%" y="240" text-anchor="middle">Wesley Vrancken</text><line x1="5%" y1="175.5" x2="20%" y2="175.5" stroke="black" stroke-width="10px"/><line x1="80%" y1="175.5" x2="95%" y2="175.5" stroke="black" stroke-width="10px"/><image x="5%" y="351" width="2%" height="50" xlink:href="img/info21.svg"/><line x1="5%" y1="412" x2="45%" y2="412" stroke="black" stroke-width="6px"/><text class="section-title" x="8%" y="403.65">Personal Details</text><text class="general-field" x="18.00%" y="473.85"><tspan fill="#696969" text-anchor="end">name</tspan><tspan x="19.00%">Wesley Vrancken</tspan></text><text class="general-field" x="18.00%" y="526.5"><tspan fill="#696969" text-anchor="end">location</tspan><tspan x="19.00%">Bree, Belgium</tspan></text><text class="general-field" x="18.00%" y="579.15"><tspan fill="#696969" text-anchor="end">home</tspan><tspan x="19.00%">+3289462451</tspan></text><text class="general-field" x="18.00%" y="631.8"><tspan fill="#696969" text-anchor="end">mobile</tspan><tspan x="19.00%">+32479602429</tspan></text><text class="general-field" x="18.00%" y="684.45"><tspan fill="#696969" text-anchor="end">email</tspan><tspan x="19.00%">wlee@isabot.net</tspan></text><text class="general-field" x="18.00%" y="737.1"><tspan fill="#696969" text-anchor="end">nationality</tspan><tspan x="19.00%">Belgian</tspan></text><image x="5%" width="4%" height="140" xlink:href="img/books30.svg" y="772.2"/><line x1="5%" x2="95%" stroke="black" stroke-width="8px" y1="912.6" y2="912.6"/><text class="big-section-title" x="10%" y="877.5">
      Education
    </text><text class="education-field" font-weight="bold" x="5.00%" y="965.25">Bachelor in Applied Computer Science</text><text class="education-field" x="10.00%" y="1017.9">PHL, Hasselt (BE), 2009-2012</text><text class="education-field" font-weight="bold" x="5.00%" y="1070.55">Physics</text><text class="education-field" x="10.00%" y="1123.2">UHasselt, Hasselt (BE), 2008-2009</text><text class="education-field" font-weight="bold" x="5.00%" y="1175.85">Civil Engineering</text><text class="education-field" x="10.00%" y="1228.5">KULeuven, Leuven (BE), 2007-2008</text><image x="5%" width="4%" height="140" xlink:href="img/man379.svg" y="1333.8"/><line x1="5%" x2="95%" stroke="black" stroke-width="8px" y1="1474.2" y2="1474.2"/><text class="big-section-title" x="10%" y="1439.1">
      Experience
    </text><text class="experience-field" x="8%" y="1579.5"><tspan font-weight="bold">Lead Developer</tspan> at OSOP<tspan class="minor" dx="2%">Volcan, Panama from 9-2014</tspan></text><text class="experience-desc" x="8%" y="1649.7"><tspan x="8.00%"/><tspan x="8.00%" dy="52.65">Full stack development of web application for showing real-time earthquakes in specified areas.</tspan><tspan x="8.00%" dy="52.65">Bare metal programming of STM32 based prototypes in combination with WiFi modules (TI CC3x00,</tspan><tspan x="8.00%" dy="52.65">Ack.me Mantis, OpenWrt based chips).</tspan><tspan x="8.00%" dy="52.65">Maintenance of existing configuration tools in Go, Python and PHP.</tspan><tspan x="8.00%" dy="52.65"/></text><rect height="70" fill="#7ACCC8" x="8.00%" y="1912.95" width="7.00%"/><text fill="black" stroke="#696969" text-anchor="middle" x="11.50%" y="1965.6000000000001">C/C++</text><rect height="70" fill="#7ACCC8" x="17.00%" y="1912.95" width="25.00%"/><text fill="black" stroke="#696969" text-anchor="middle" x="29.50%" y="1965.6000000000001">Javascript/Coffeescript</text><rect height="70" fill="#7ACCC8" x="44.00%" y="1912.95" width="8.00%"/><text fill="black" stroke="#696969" text-anchor="middle" x="48.00%" y="1965.6000000000001">Python</text><rect height="70" fill="#7ACCC8" x="54.00%" y="1912.95" width="4.00%"/><text fill="black" stroke="#696969" text-anchor="middle" x="56.00%" y="1965.6000000000001">Go</text><rect height="70" fill="#7ACCC8" x="60.00%" y="1912.95" width="5.00%"/><text fill="black" stroke="#696969" text-anchor="middle" x="62.50%" y="1965.6000000000001">PHP</text><rect height="70" fill="#A3D39C" x="67.00%" y="1912.95" width="13.00%"/><text fill="black" stroke="#696969" text-anchor="middle" x="73.50%" y="1965.6000000000001">Backbone.js</text><rect height="70" fill="#A3D39C" x="82.00%" y="1912.95" width="7.00%"/><text fill="black" stroke="#696969" text-anchor="middle" x="85.50%" y="1965.6000000000001">Bower</text><rect height="70" fill="#A3D39C" x="8.00%" y="2018.2500000000002" width="15.00%"/><text fill="black" stroke="#696969" text-anchor="middle" x="15.50%" y="2070.9">Underscore.js</text><rect height="70" fill="#A3D39C" x="25.00%" y="2018.2500000000002" width="8.00%"/><text fill="black" stroke="#696969" text-anchor="middle" x="29.00%" y="2070.9">JQuery</text><rect height="70" fill="#A3D39C" x="35.00%" y="2018.2500000000002" width="8.00%"/><text fill="black" stroke="#696969" text-anchor="middle" x="39.00%" y="2070.9">Django</text><rect height="70" fill="#E45F56" x="45.00%" y="2018.2500000000002" width="10.00%"/><text fill="black" stroke="#696969" text-anchor="middle" x="50.00%" y="2070.9">HTML/CSS</text><rect height="70" fill="#E45F56" x="57.00%" y="2018.2500000000002" width="5.00%"/><text fill="black" stroke="#696969" text-anchor="middle" x="59.50%" y="2070.9">Git</text><rect height="70" fill="#4AAAA5" x="64.00%" y="2018.2500000000002" width="7.00%"/><text fill="black" stroke="#696969" text-anchor="middle" x="67.50%" y="2070.9">Linux</text><rect height="70" fill="#4AAAA5" x="73.00%" y="2018.2500000000002" width="7.00%"/><text fill="black" stroke="#696969" text-anchor="middle" x="76.50%" y="2070.9">Emacs</text><rect height="70" fill="#4AAAA5" x="82.00%" y="2018.2500000000002" width="9.00%"/><text fill="black" stroke="#696969" text-anchor="middle" x="86.50%" y="2070.9">Eclipse</text>0.5750000000000001<text class="experience-field" x="8%" y="2252.016"><tspan font-weight="bold">Web Developer</tspan> at Boaz Consultancy<tspan class="minor" dx="2%">Remote/Volcan, Panama from 9-2014</tspan></text><text class="experience-desc" x="8%" y="2322.2160000000003"><tspan x="8.00%"/><tspan x="8.00%" dy="52.65">Developing back office web applications for display of real-time banking data.</tspan><tspan x="8.00%" dy="52.65"/></text><rect height="70" fill="#7ACCC8" x="8.00%" y="2427.5160000000005" width="4.00%"/><text fill="black" stroke="#696969" text-anchor="middle" x="10.00%" y="2480.1660000000006">C#</text><rect height="70" fill="#7ACCC8" x="14.00%" y="2427.5160000000005" width="25.00%"/><text fill="black" stroke="#696969" text-anchor="middle" x="26.50%" y="2480.1660000000006">Javascript/Coffeescript</text><rect height="70" fill="#A3D39C" x="41.00%" y="2427.5160000000005" width="13.00%"/><text fill="black" stroke="#696969" text-anchor="middle" x="47.50%" y="2480.1660000000006">ASP.NET MVC</text><rect height="70" fill="#A3D39C" x="56.00%" y="2427.5160000000005" width="12.00%"/><text fill="black" stroke="#696969" text-anchor="middle" x="62.00%" y="2480.1660000000006">Angular.js</text><rect height="70" fill="#A3D39C" x="70.00%" y="2427.5160000000005" width="7.00%"/><text fill="black" stroke="#696969" text-anchor="middle" x="73.50%" y="2480.1660000000006">Bower</text><rect height="70" fill="#A3D39C" x="79.00%" y="2427.5160000000005" width="10.00%"/><text fill="black" stroke="#696969" text-anchor="middle" x="84.00%" y="2480.1660000000006">Grunt.js</text><rect height="70" fill="#A3D39C" x="8.00%" y="2532.8160000000003" width="10.00%"/><text fill="black" stroke="#696969" text-anchor="middle" x="13.00%" y="2585.4660000000003">Kendo UI</text><rect height="70" fill="#E45F56" x="20.00%" y="2532.8160000000003" width="10.00%"/><text fill="black" stroke="#696969" text-anchor="middle" x="25.00%" y="2585.4660000000003">HTML/CSS</text><rect height="70" fill="#E45F56" x="32.00%" y="2532.8160000000003" width="5.00%"/><text fill="black" stroke="#696969" text-anchor="middle" x="34.50%" y="2585.4660000000003">SVN</text><rect height="70" fill="#4AAAA5" x="39.00%" y="2532.8160000000003" width="7.00%"/><text fill="black" stroke="#696969" text-anchor="middle" x="42.50%" y="2585.4660000000003">Emacs</text><rect height="70" fill="#4AAAA5" x="48.00%" y="2532.8160000000003" width="15.00%"/><text fill="black" stroke="#696969" text-anchor="middle" x="55.50%" y="2585.4660000000003">Visual Studio</text>0.7216000000000001<text class="experience-field" x="8%" y="2749.7340000000004"><tspan font-weight="bold">Software Engineer</tspan> at Key Technology<tspan class="minor" dx="2%">Hasselt, Belgium from 11-2013 to 8-2014</tspan></text><text class="experience-desc" x="8%" y="2819.934"><tspan x="8.00%"/><tspan x="8.00%" dy="52.65">Developing software implementations in multiple domains relating to optical sorting machines and</tspan><tspan x="8.00%" dy="52.65">complementing equipment.</tspan><tspan x="8.00%" dy="52.65">Creating utility software for engineers and other support staff.</tspan><tspan x="8.00%" dy="52.65">Internal Jenkins build tool development using Ruby.</tspan><tspan x="8.00%" dy="52.65">Managing Jenkins CI server for C++ and Python projects.</tspan><tspan x="8.00%" dy="52.65"/></text><rect height="70" fill="#7ACCC8" x="8.00%" y="3135.8340000000003" width="7.00%"/><text fill="black" stroke="#696969" text-anchor="middle" x="11.50%" y="3188.4840000000004">C/C++</text><rect height="70" fill="#7ACCC8" x="17.00%" y="3135.8340000000003" width="8.00%"/><text fill="black" stroke="#696969" text-anchor="middle" x="21.00%" y="3188.4840000000004">Python</text><rect height="70" fill="#7ACCC8" x="27.00%" y="3135.8340000000003" width="6.00%"/><text fill="black" stroke="#696969" text-anchor="middle" x="30.00%" y="3188.4840000000004">Ruby</text><rect height="70" fill="#A3D39C" x="35.00%" y="3135.8340000000003" width="7.00%"/><text fill="black" stroke="#696969" text-anchor="middle" x="38.50%" y="3188.4840000000004">Boost</text><rect height="70" fill="#A3D39C" x="44.00%" y="3135.8340000000003" width="4.00%"/><text fill="black" stroke="#696969" text-anchor="middle" x="46.00%" y="3188.4840000000004">Qt</text><rect height="70" fill="#A3D39C" x="50.00%" y="3135.8340000000003" width="12.00%"/><text fill="black" stroke="#696969" text-anchor="middle" x="56.00%" y="3188.4840000000004">UnitTest++</text><rect height="70" fill="#A3D39C" x="64.00%" y="3135.8340000000003" width="13.00%"/><text fill="black" stroke="#696969" text-anchor="middle" x="70.50%" y="3188.4840000000004">Numpy/Scipy</text><rect height="70" fill="#E45F56" x="79.00%" y="3135.8340000000003" width="5.00%"/><text fill="black" stroke="#696969" text-anchor="middle" x="81.50%" y="3188.4840000000004">XML</text><rect height="70" fill="#E45F56" x="86.00%" y="3135.8340000000003" width="5.00%"/><text fill="black" stroke="#696969" text-anchor="middle" x="88.50%" y="3188.4840000000004">XSD</text><rect height="70" fill="#E45F56" x="8.00%" y="3241.1340000000005" width="6.00%"/><text fill="black" stroke="#696969" text-anchor="middle" x="11.00%" y="3293.7840000000006">XSLT</text><rect height="70" fill="#E45F56" x="16.00%" y="3241.1340000000005" width="5.00%"/><text fill="black" stroke="#696969" text-anchor="middle" x="18.50%" y="3293.7840000000006">Git</text><rect height="70" fill="#E45F56" x="23.00%" y="3241.1340000000005" width="5.00%"/><text fill="black" stroke="#696969" text-anchor="middle" x="25.50%" y="3293.7840000000006">SVN</text><rect height="70" fill="#4AAAA5" x="30.00%" y="3241.1340000000005" width="7.00%"/><text fill="black" stroke="#696969" text-anchor="middle" x="33.50%" y="3293.7840000000006">Linux</text><rect height="70" fill="#4AAAA5" x="39.00%" y="3241.1340000000005" width="7.00%"/><text fill="black" stroke="#696969" text-anchor="middle" x="42.50%" y="3293.7840000000006">Emacs</text><rect height="70" fill="#4AAAA5" x="48.00%" y="3241.1340000000005" width="9.00%"/><text fill="black" stroke="#696969" text-anchor="middle" x="52.50%" y="3293.7840000000006">Eclipse</text><rect height="70" fill="#4AAAA5" x="59.00%" y="3241.1340000000005" width="9.00%"/><text fill="black" stroke="#696969" text-anchor="middle" x="63.50%" y="3293.7840000000006">Jenkins</text>0.9234000000000001<text class="experience-field" x="8%" y="3685.5"><tspan font-weight="bold">Web Developer</tspan> at Ubicast<tspan class="minor" dx="2%">Tokyo, Japan from 2-2013 to 8-2013</tspan></text><text class="experience-desc" x="8%" y="3755.7000000000003"><tspan x="8.00%"/><tspan x="8.00%" dy="52.65">Web application and module development using OpenCMS.</tspan><tspan x="8.00%" dy="52.65">In charge of corporate website redesign and reimplementation.</tspan><tspan x="8.00%" dy="52.65"/></text><rect height="70" fill="#7ACCC8" x="8.00%" y="3913.65" width="6.00%"/><text fill="black" stroke="#696969" text-anchor="middle" x="11.00%" y="3966.2999999999997">Java</text><rect height="70" fill="#7ACCC8" x="16.00%" y="3913.65" width="25.00%"/><text fill="black" stroke="#696969" text-anchor="middle" x="28.50%" y="3966.2999999999997">Javascript/Coffeescript</text><rect height="70" fill="#7ACCC8" x="43.00%" y="3913.65" width="7.00%"/><text fill="black" stroke="#696969" text-anchor="middle" x="46.50%" y="3966.2999999999997">Scala</text><rect height="70" fill="#A3D39C" x="52.00%" y="3913.65" width="7.00%"/><text fill="black" stroke="#696969" text-anchor="middle" x="55.50%" y="3966.2999999999997">JUnit</text><rect height="70" fill="#A3D39C" x="61.00%" y="3913.65" width="13.00%"/><text fill="black" stroke="#696969" text-anchor="middle" x="67.50%" y="3966.2999999999997">Backbone.js</text><rect height="70" fill="#A3D39C" x="76.00%" y="3913.65" width="7.00%"/><text fill="black" stroke="#696969" text-anchor="middle" x="79.50%" y="3966.2999999999997">Bower</text><rect height="70" fill="#A3D39C" x="85.00%" y="3913.65" width="10.00%"/><text fill="black" stroke="#696969" text-anchor="middle" x="90.00%" y="3966.2999999999997">Grunt.js</text><rect height="70" fill="#A3D39C" x="8.00%" y="4018.9500000000003" width="12.00%"/><text fill="black" stroke="#696969" text-anchor="middle" x="14.00%" y="4071.6">Require.js</text><rect height="70" fill="#A3D39C" x="22.00%" y="4018.9500000000003" width="15.00%"/><text fill="black" stroke="#696969" text-anchor="middle" x="29.50%" y="4071.6">Underscore.js</text><rect height="70" fill="#A3D39C" x="39.00%" y="4018.9500000000003" width="9.00%"/><text fill="black" stroke="#696969" text-anchor="middle" x="43.50%" y="4071.6">Jasmine</text><rect height="70" fill="#A3D39C" x="50.00%" y="4018.9500000000003" width="8.00%"/><text fill="black" stroke="#696969" text-anchor="middle" x="54.00%" y="4071.6">JQuery</text><rect height="70" fill="#A3D39C" x="60.00%" y="4018.9500000000003" width="9.00%"/><text fill="black" stroke="#696969" text-anchor="middle" x="64.50%" y="4071.6">OpenCMS</text><rect height="70" fill="#E45F56" x="71.00%" y="4018.9500000000003" width="5.00%"/><text fill="black" stroke="#696969" text-anchor="middle" x="73.50%" y="4071.6">XML</text><rect height="70" fill="#E45F56" x="78.00%" y="4018.9500000000003" width="5.00%"/><text fill="black" stroke="#696969" text-anchor="middle" x="80.50%" y="4071.6">XSD</text><rect height="70" fill="#E45F56" x="85.00%" y="4018.9500000000003" width="10.00%"/><text fill="black" stroke="#696969" text-anchor="middle" x="90.00%" y="4071.6">HTML/CSS</text><rect height="70" fill="#E45F56" x="8.00%" y="4124.25" width="5.00%"/><text fill="black" stroke="#696969" text-anchor="middle" x="10.50%" y="4176.9">Git</text><rect height="70" fill="#4AAAA5" x="15.00%" y="4124.25" width="7.00%"/><text fill="black" stroke="#696969" text-anchor="middle" x="18.50%" y="4176.9">Linux</text><rect height="70" fill="#4AAAA5" x="24.00%" y="4124.25" width="7.00%"/><text fill="black" stroke="#696969" text-anchor="middle" x="27.50%" y="4176.9">Emacs</text><rect height="70" fill="#4AAAA5" x="33.00%" y="4124.25" width="9.00%"/><text fill="black" stroke="#696969" text-anchor="middle" x="37.50%" y="4176.9">Eclipse</text>1.175<text class="experience-field" x="8%" y="4288.518"><tspan font-weight="bold">IT Consultant</tspan> at Cegeka<tspan class="minor" dx="2%">Hasselt, Belgium from 10-2012 to 1-2013</tspan></text><text class="experience-desc" x="8%" y="4358.718"><tspan x="8.00%"/><tspan x="8.00%" dy="52.65">Analist-Developer at Heraeus Electro Nite's instrumentation department.</tspan><tspan x="8.00%" dy="52.65">Designing and developing WPF/C# applications for use on Windows 7 Embedded measurement devices.</tspan><tspan x="8.00%" dy="52.65">Field testing software at aluminum ovens.</tspan><tspan x="8.00%" dy="52.65">Mathematical analysis of graphs generated in field tests using NumPy and SciPy to prototype before</tspan><tspan x="8.00%" dy="52.65">creating a C# implementation.</tspan><tspan x="8.00%" dy="52.65">Communicating with engineers for confirmation of analyses and resolving hardware bugs.</tspan><tspan x="8.00%" dy="52.65"/></text><rect height="70" fill="#7ACCC8" x="8.00%" y="4727.268" width="4.00%"/><text fill="black" stroke="#696969" text-anchor="middle" x="10.00%" y="4779.918">C#</text><rect height="70" fill="#7ACCC8" x="14.00%" y="4727.268" width="8.00%"/><text fill="black" stroke="#696969" text-anchor="middle" x="18.00%" y="4779.918">Python</text><rect height="70" fill="#A3D39C" x="24.00%" y="4727.268" width="5.00%"/><text fill="black" stroke="#696969" text-anchor="middle" x="26.50%" y="4779.918">WPF</text><rect height="70" fill="#A3D39C" x="31.00%" y="4727.268" width="13.00%"/><text fill="black" stroke="#696969" text-anchor="middle" x="37.50%" y="4779.918">Numpy/Scipy</text><rect height="70" fill="#E45F56" x="46.00%" y="4727.268" width="5.00%"/><text fill="black" stroke="#696969" text-anchor="middle" x="48.50%" y="4779.918">TFS</text><rect height="70" fill="#4AAAA5" x="53.00%" y="4727.268" width="15.00%"/><text fill="black" stroke="#696969" text-anchor="middle" x="60.50%" y="4779.918">Visual Studio</text>1.3468<text class="experience-field" x="8%" y="4983.147"><tspan font-weight="bold">IT Consultant</tspan> at Fenego<tspan class="minor" dx="2%">Hasselt, Belgium from 8-2012 to 9-2013</tspan></text><text class="experience-desc" x="8%" y="5053.347"><tspan x="8.00%"/><tspan x="8.00%" dy="52.65">Created a Java based testing tool which generated valid XML files based on an XSD.</tspan><tspan x="8.00%" dy="52.65">These XML files were then run through web services to check for potential logical errors in the</tspan><tspan x="8.00%" dy="52.65">back-end code.</tspan><tspan x="8.00%" dy="52.65"/></text><rect height="70" fill="#7ACCC8" x="8.00%" y="5263.946999999999" width="6.00%"/><text fill="black" stroke="#696969" text-anchor="middle" x="11.00%" y="5316.596999999999">Java</text><rect height="70" fill="#A3D39C" x="16.00%" y="5263.946999999999" width="8.00%"/><text fill="black" stroke="#696969" text-anchor="middle" x="20.00%" y="5316.596999999999">JavaFX</text><rect height="70" fill="#E45F56" x="26.00%" y="5263.946999999999" width="5.00%"/><text fill="black" stroke="#696969" text-anchor="middle" x="28.50%" y="5316.596999999999">XML</text><rect height="70" fill="#E45F56" x="33.00%" y="5263.946999999999" width="5.00%"/><text fill="black" stroke="#696969" text-anchor="middle" x="35.50%" y="5316.596999999999">XSD</text><rect height="70" fill="#4AAAA5" x="40.00%" y="5263.946999999999" width="15.00%"/><text fill="black" stroke="#696969" text-anchor="middle" x="47.50%" y="5316.596999999999">Visual Studio</text>1.4996999999999998<text class="experience-field" x="8%" y="5509.295999999999"><tspan font-weight="bold">Developer (intern)</tspan> at Cinemaray<tspan class="minor" dx="2%">Nagoya, Japan from 3-2012 to 8-2012</tspan></text><text class="experience-desc" x="8%" y="5579.496"><tspan x="8.00%"/><tspan x="8.00%" dy="52.65">Created and modified iOS enterprise applications utilizing Unity3D and/or the Vuforia AR SDK.</tspan><tspan x="8.00%" dy="52.65">Worked with XNA / C# to create a Microsoft PixelSense application.</tspan><tspan x="8.00%" dy="52.65">Worked on a custom mapping application using Geoserver to serve user specified map overlays to a</tspan><tspan x="8.00%" dy="52.65">OpenLayers web application.</tspan><tspan x="8.00%" dy="52.65"/></text><rect height="70" fill="#7ACCC8" x="8.00%" y="5842.745999999999" width="4.00%"/><text fill="black" stroke="#696969" text-anchor="middle" x="10.00%" y="5895.395999999999">C#</text><rect height="70" fill="#7ACCC8" x="14.00%" y="5842.745999999999" width="6.00%"/><text fill="black" stroke="#696969" text-anchor="middle" x="17.00%" y="5895.395999999999">Java</text><rect height="70" fill="#7ACCC8" x="22.00%" y="5842.745999999999" width="25.00%"/><text fill="black" stroke="#696969" text-anchor="middle" x="34.50%" y="5895.395999999999">Javascript/Coffeescript</text><rect height="70" fill="#7ACCC8" x="49.00%" y="5842.745999999999" width="13.00%"/><text fill="black" stroke="#696969" text-anchor="middle" x="55.50%" y="5895.395999999999">Objective-C</text><rect height="70" fill="#A3D39C" x="64.00%" y="5842.745999999999" width="8.00%"/><text fill="black" stroke="#696969" text-anchor="middle" x="68.00%" y="5895.395999999999">JQuery</text><rect height="70" fill="#A3D39C" x="74.00%" y="5842.745999999999" width="12.00%"/><text fill="black" stroke="#696969" text-anchor="middle" x="80.00%" y="5895.395999999999">OpenLayers</text><rect height="70" fill="#A3D39C" x="8.00%" y="5948.045999999999" width="9.00%"/><text fill="black" stroke="#696969" text-anchor="middle" x="12.50%" y="6000.695999999999">Cocos2d</text><rect height="70" fill="#E45F56" x="19.00%" y="5948.045999999999" width="5.00%"/><text fill="black" stroke="#696969" text-anchor="middle" x="21.50%" y="6000.695999999999">Git</text><rect height="70" fill="#E45F56" x="26.00%" y="5948.045999999999" width="6.00%"/><text fill="black" stroke="#696969" text-anchor="middle" x="29.00%" y="6000.695999999999">GDAL</text><rect height="70" fill="#4AAAA5" x="34.00%" y="5948.045999999999" width="7.00%"/><text fill="black" stroke="#696969" text-anchor="middle" x="37.50%" y="6000.695999999999">MacOS</text><rect height="70" fill="#4AAAA5" x="43.00%" y="5948.045999999999" width="8.00%"/><text fill="black" stroke="#696969" text-anchor="middle" x="47.00%" y="6000.695999999999">X-Code</text><rect height="70" fill="#4AAAA5" x="53.00%" y="5948.045999999999" width="11.00%"/><text fill="black" stroke="#696969" text-anchor="middle" x="58.50%" y="6000.695999999999">Geoserver</text>1.6945999999999999<text class="experience-field" x="8%" y="6159.699"><tspan font-weight="bold">IT Consultant</tspan> at Fenego<tspan class="minor" dx="2%">Hasselt, Belgium from 8-2011 to 9-2011</tspan></text><text class="experience-desc" x="8%" y="6229.898999999999"><tspan x="8.00%"/><tspan x="8.00%" dy="52.65">Created a centralized monitoring and management system for servers. Used GWT(P) and SmartGWT in</tspan><tspan x="8.00%" dy="52.65">combination with Java to make the management front-end.</tspan><tspan x="8.00%" dy="52.65">Configured a Tornado server for pushing staticstics to and pulling settings scripts from.</tspan><tspan x="8.00%" dy="52.65">Implemented a JMX server to use in conjunction with a ManageEngine instance to create a easily</tspan><tspan x="8.00%" dy="52.65">configurable dashboard.</tspan><tspan x="8.00%" dy="52.65"/></text><rect height="70" fill="#7ACCC8" x="8.00%" y="6545.798999999999" width="6.00%"/><text fill="black" stroke="#696969" text-anchor="middle" x="11.00%" y="6598.448999999999">Java</text><rect height="70" fill="#7ACCC8" x="16.00%" y="6545.798999999999" width="8.00%"/><text fill="black" stroke="#696969" text-anchor="middle" x="20.00%" y="6598.448999999999">Python</text><rect height="70" fill="#7ACCC8" x="26.00%" y="6545.798999999999" width="6.00%"/><text fill="black" stroke="#696969" text-anchor="middle" x="29.00%" y="6598.448999999999">Bash</text><rect height="70" fill="#A3D39C" x="34.00%" y="6545.798999999999" width="5.00%"/><text fill="black" stroke="#696969" text-anchor="middle" x="36.50%" y="6598.448999999999">GWT</text><rect height="70" fill="#A3D39C" x="41.00%" y="6545.798999999999" width="6.00%"/><text fill="black" stroke="#696969" text-anchor="middle" x="44.00%" y="6598.448999999999">GWTP</text><rect height="70" fill="#A3D39C" x="49.00%" y="6545.798999999999" width="10.00%"/><text fill="black" stroke="#696969" text-anchor="middle" x="54.00%" y="6598.448999999999">SmartGWT</text><rect height="70" fill="#E45F56" x="61.00%" y="6545.798999999999" width="10.00%"/><text fill="black" stroke="#696969" text-anchor="middle" x="66.00%" y="6598.448999999999">HTML/CSS</text><rect height="70" fill="#E45F56" x="73.00%" y="6545.798999999999" width="5.00%"/><text fill="black" stroke="#696969" text-anchor="middle" x="75.50%" y="6598.448999999999">SVN</text><rect height="70" fill="#4AAAA5" x="80.00%" y="6545.798999999999" width="7.00%"/><text fill="black" stroke="#696969" text-anchor="middle" x="83.50%" y="6598.448999999999">Linux</text><rect height="70" fill="#4AAAA5" x="8.00%" y="6651.098999999999" width="9.00%"/><text fill="black" stroke="#696969" text-anchor="middle" x="12.50%" y="6703.748999999999">Eclipse</text>1.8948999999999998<image x="50%" y="351" width="2%" height="50" xlink:href="img/planet5.svg"/><line x1="50%" y1="412" x2="95%" y2="412" stroke="black" stroke-width="6px"/><text class="section-title" x="53%" y="403.65">Languages</text><text class="language-field" x="52.00%" y="473.85">Dutch</text><image width="1.5%" height="52" xlink:href="img/star174.svg" x="93.00%" y="435.24"/><image width="1.5%" height="52" xlink:href="img/star174.svg" x="91.00%" y="435.24"/><image width="1.5%" height="52" xlink:href="img/star174.svg" x="89.00%" y="435.24"/><image width="1.5%" height="52" xlink:href="img/star174.svg" x="87.00%" y="435.24"/><image width="1.5%" height="52" xlink:href="img/star174.svg" x="85.00%" y="435.24"/><text class="language-field" x="52.00%" y="526.5">English</text><image width="1.5%" height="52" xlink:href="img/star174.svg" x="93.00%" y="487.89"/><image width="1.5%" height="52" xlink:href="img/star174.svg" x="91.00%" y="487.89"/><image width="1.5%" height="52" xlink:href="img/star174.svg" x="89.00%" y="487.89"/><image width="1.5%" height="52" xlink:href="img/star174.svg" x="87.00%" y="487.89"/><image width="1.5%" height="52" xlink:href="img/star174.svg" x="85.00%" y="487.89"/><text class="language-field" x="52.00%" y="579.15">French</text><image width="1.5%" height="52" xlink:href="img/star174.svg" x="93.00%" y="540.54"/><image width="1.5%" height="52" xlink:href="img/star174.svg" x="91.00%" y="540.54"/><image width="1.5%" height="52" xlink:href="img/star174.svg" x="89.00%" y="540.54"/><image width="1.5%" height="52" xlink:href="img/star174.svg" x="87.00%" y="540.54"/><text class="language-field" x="52.00%" y="631.8">German</text><image width="1.5%" height="52" xlink:href="img/star174.svg" x="93.00%" y="593.19"/><image width="1.5%" height="52" xlink:href="img/star174.svg" x="91.00%" y="593.19"/><image width="1.5%" height="52" xlink:href="img/star174.svg" x="89.00%" y="593.19"/><text class="language-field" x="52.00%" y="684.45">Japanese</text><image width="1.5%" height="52" xlink:href="img/star174.svg" x="93.00%" y="645.84"/><image width="1.5%" height="52" xlink:href="img/star174.svg" x="91.00%" y="645.84"/><image width="1.5%" height="52" xlink:href="img/star174.svg" x="89.00%" y="645.84"/><text class="language-field" x="52.00%" y="737.1">Spanish</text><image width="1.5%" height="52" xlink:href="img/star174.svg" x="93.00%" y="698.49"/><image width="1.5%" height="52" xlink:href="img/star174.svg" x="91.00%" y="698.49"/></svg>