<?xml version="1.0" encoding="iso-8859-1"?>
<!-- Generator: Adobe Illustrator 16.0.0, SVG Export Plug-In . SVG Version: 6.00 Build 0)  -->
<!DOCTYPE svg PUBLIC "-//W3C//DTD SVG 1.1//EN" "http://www.w3.org/Graphics/SVG/1.1/DTD/svg11.dtd">
<svg version="1.1" id="Layer_1" xmlns="http://www.w3.org/2000/svg" xmlns:xlink="http://www.w3.org/1999/xlink" x="0px" y="0px"
	 width="31.991px" height="20.07px" viewBox="0 0 31.991 20.07" style="enable-background:new 0 0 31.991 20.07;"
	 xml:space="preserve">
<g>
	<path d="M6.952,11.229v5.013c0,0,4.808-2.003,9.071-2.003s9.072,2.003,9.072,2.003v-5.084c0,0-4.586-2.426-9.142-2.426
		C11.398,8.731,6.952,11.229,6.952,11.229z"/>
	<path d="M30.187,10.034l1.804-0.97l-1.804-0.999V7.591c0,0,0.508-2.576-2.379-1.229c-0.147,0.08-0.225,0.161-0.257,0.24L15.645,0
		L0,8.953l5.908,2.684v-0.871c0,0,4.957-2.783,10.038-2.783c5.08,0,10.193,2.705,10.193,2.705v1.521l3.261-1.752
		c0,2.03,0,6.369,0,7.093h-1.085v2.52l1.444-0.998l1.602,0.998v-2.52h-1.173V10.034z M29.4,7.154c0,0.061,0,0.229,0,0.475
		l-0.952-0.528C28.795,6.87,29.4,6.552,29.4,7.154z M29.078,9.936c-0.421,0-0.763-0.341-0.763-0.762s0.342-0.763,0.763-0.763
		c0.422,0,0.763,0.342,0.763,0.763S29.5,9.936,29.078,9.936z"/>
</g>
<g>
</g>
<g>
</g>
<g>
</g>
<g>
</g>
<g>
</g>
<g>
</g>
<g>
</g>
<g>
</g>
<g>
</g>
<g>
</g>
<g>
</g>
<g>
</g>
<g>
</g>
<g>
</g>
<g>
</g>
</svg>
